<?xml version="1.0" encoding="UTF-8"?>
<svg id="_レイヤー_1" data-name="レイヤー 1" xmlns="http://www.w3.org/2000/svg" viewBox="0 0 360 152">
  <defs>
    <style>
      .cls-1 {
        fill: #fcfc0d;
      }

      .cls-2 {
        fill: #fff;
      }

      .cls-3 {
        fill: none;
      }

      .cls-4 {
        fill: #144576;
      }
    </style>
  </defs>
  <rect class="cls-3" width="360" height="152"/>
  <path class="cls-4" d="M168.85,63.65c0-10.62,6.81-15.73,16.14-15.73,8.51,0,16.14,3.13,16.14,13.35v6.06h-11.92v-5.45c0-2.72-1.16-4.29-3.95-4.29-3.34,0-3.88,3.27-3.88,4.97v26.9c0,1.43,0,4.97,3.61,4.97,2.79,0,4.02-1.29,4.02-4.09v-7.01h-4.43v-10.08h16.55v29.96h-10.96v-4.43h-.14c-2.25,3.68-5.24,5.31-9.67,5.31-8.99,0-11.51-7.49-11.51-15.73v-24.72Z"/>
  <path class="cls-4" d="M206.72,63.65c0-10.62,6.81-15.73,16.14-15.73s16.14,5.11,16.14,15.73v5.04h-12.53v-6.13c0-1.84,0-4.97-3.61-4.97s-3.61,3.13-3.61,4.97v26.9c0,1.43,0,4.97,3.61,4.97s3.61-3.54,3.61-4.97v-7.97h12.53v6.88c0,9.67-6.2,15.73-16.14,15.73s-16.14-6.06-16.14-15.73v-24.72Z"/>
  <path class="cls-4" d="M244.44,71.21c0-5.11,2.66-12.39,14.37-12.39s14.37,7.29,14.37,12.39v20.5c0,5.11-2.66,12.39-14.37,12.39s-14.37-7.29-14.37-12.39v-20.5ZM256.15,92.52c0,1.5,0,3.54,2.66,3.54s2.66-2.04,2.66-3.54v-22.13c0-1.5,0-3.54-2.66-3.54s-2.66,2.04-2.66,3.54v22.13Z"/>
  <path class="cls-4" d="M307.22,103.21h-11.71v-4.36h-.14c-1.43,3.34-4.36,5.24-8.17,5.24-5.52,0-8.72-4.83-8.72-13.01v-21.24c0-6.95,2.79-11.03,8.51-11.03,4.22,0,6.61,1.5,8.38,4.83h.14v-14.84h11.71v54.41ZM295.51,73.18c0-2.66-.54-5.52-3-5.52-1.09,0-2.32.89-2.32,2.66v22.06c0,2.25,1.16,2.86,2.32,2.86,3,0,3-4.09,3-7.08v-14.98Z"/>
  <path class="cls-4" d="M312.53,71.21c0-5.11,2.66-12.39,14.37-12.39s14.37,7.29,14.37,12.39v11.98h-17.02v9.33c0,1.5,0,3.54,2.66,3.54s2.66-2.04,2.66-3.54v-5.45h11.71v4.63c0,5.11-2.66,12.39-14.37,12.39s-14.37-7.29-14.37-12.39v-20.5ZM324.25,75.16h5.31v-4.77c0-1.5,0-3.54-2.66-3.54s-2.66,2.04-2.66,3.54v4.77Z"/>
  <polygon class="cls-4" points="80.53 114.8 46.92 95.39 46.92 56.59 80.53 37.19 113.2 56.05 111.33 59.29 80.53 41.5 50.66 58.75 50.66 93.23 80.53 110.48 111.33 92.69 113.2 95.93 80.53 114.8"/>
  <circle class="cls-2" cx="80.53" cy="39.58" r="3.06"/>
  <path class="cls-4" d="M80.53,36.52c1.69,0,3.06,1.37,3.06,3.06s-1.37,3.06-3.06,3.06-3.06-1.37-3.06-3.06,1.37-3.06,3.06-3.06M80.53,34.44c-2.84,0-5.14,2.31-5.14,5.14s2.31,5.14,5.14,5.14,5.14-2.31,5.14-5.14-2.31-5.14-5.14-5.14h0Z"/>
  <circle class="cls-2" cx="49.12" cy="58" r="3.06"/>
  <path class="cls-4" d="M49.12,54.93c1.69,0,3.06,1.37,3.06,3.06s-1.37,3.06-3.06,3.06-3.06-1.37-3.06-3.06,1.37-3.06,3.06-3.06M49.12,52.85c-2.84,0-5.14,2.31-5.14,5.14s2.31,5.14,5.14,5.14,5.14-2.31,5.14-5.14-2.31-5.14-5.14-5.14h0Z"/>
  <circle class="cls-1" cx="112.3" cy="57.78" r="3.06"/>
  <path class="cls-4" d="M112.3,54.72c1.69,0,3.06,1.37,3.06,3.06s-1.37,3.06-3.06,3.06-3.06-1.37-3.06-3.06,1.37-3.06,3.06-3.06M112.3,52.64c-2.84,0-5.14,2.31-5.14,5.14s2.31,5.14,5.14,5.14,5.14-2.31,5.14-5.14-2.31-5.14-5.14-5.14h0Z"/>
  <circle class="cls-2" cx="80.9" cy="112.64" r="3.06"/>
  <path class="cls-4" d="M80.9,109.57c1.69,0,3.06,1.37,3.06,3.06s-1.37,3.06-3.06,3.06-3.06-1.37-3.06-3.06,1.37-3.06,3.06-3.06M80.9,107.49c-2.84,0-5.14,2.31-5.14,5.14s2.31,5.14,5.14,5.14,5.14-2.31,5.14-5.14-2.31-5.14-5.14-5.14h0Z"/>
  <circle class="cls-2" cx="112.3" cy="94.22" r="3.06"/>
  <path class="cls-4" d="M112.3,91.16c1.69,0,3.06,1.37,3.06,3.06s-1.37,3.06-3.06,3.06-3.06-1.37-3.06-3.06,1.37-3.06,3.06-3.06M112.3,89.08c-2.84,0-5.14,2.31-5.14,5.14s2.31,5.14,5.14,5.14,5.14-2.31,5.14-5.14-2.31-5.14-5.14-5.14h0Z"/>
  <circle class="cls-2" cx="49.12" cy="94.44" r="3.06"/>
  <path class="cls-4" d="M49.12,91.38c1.69,0,3.06,1.37,3.06,3.06s-1.37,3.06-3.06,3.06-3.06-1.37-3.06-3.06,1.37-3.06,3.06-3.06M49.12,89.3c-2.84,0-5.14,2.31-5.14,5.14s2.31,5.14,5.14,5.14,5.14-2.31,5.14-5.14-2.31-5.14-5.14-5.14h0Z"/>
  <polygon class="cls-4" points="123.78 66.77 79.12 66.77 79.14 85.35 123.78 85.35 123.78 100.96 80.54 125.92 37.31 100.96 37.31 51.04 80.54 26.08 123.78 51.04 142.36 40.31 80.54 4.62 18.73 40.31 18.73 111.69 80.54 147.38 142.36 111.69 142.36 66.77 141.92 66.77 123.78 66.77"/>
</svg>