<svg width="403" height="107" viewBox="0 0 403 107" fill="none" xmlns="http://www.w3.org/2000/svg">
<path d="M76.04 43.7299C74.91 43.7299 73.83 43.2699 73.02 42.4499C72.2 41.6299 71.76 40.5499 71.77 39.4199C71.79 37.0999 73.7 35.1999 76.02 35.1899C77.17 35.1899 78.25 35.6499 79.06 36.4699C79.88 37.2899 80.32 38.3699 80.31 39.4999C80.29 41.8199 78.38 43.7199 76.06 43.7299H76.04Z" fill="#233E50"/>
<path d="M75.93 34.41C73.67 34.36 71.92 32.54 71.94 30.25C71.96 27.98 73.77 26.2 76.06 26.2H76.15C78.41 26.25 80.16 28.07 80.14 30.36C80.12 32.63 78.31 34.41 76.02 34.41H75.93Z" fill="#233E50"/>
<path d="M76.04 52.9C74.96 52.9 73.94 52.48 73.17 51.7C72.4 50.93 71.97 49.91 71.97 48.83C71.97 46.59 73.8 44.77 76.04 44.77H76.07C77.15 44.77 78.17 45.21 78.94 46C79.71 46.78 80.12 47.81 80.1 48.9C80.07 51.09 78.26 52.89 76.06 52.9H76.04Z" fill="#233E50"/>
<path d="M66.85 24.95C65.86 24.94 64.88 24.5 64.16 23.76C63.45 23.02 63.06 22.05 63.08 21.08C63.13 19.07 64.86 17.36 66.86 17.34H66.89C67.86 17.34 68.83 17.75 69.55 18.48C70.27 19.2 70.69 20.18 70.68 21.15C70.68 23.17 68.9 24.95 66.88 24.95H66.84H66.85Z" fill="#233E50"/>
<path d="M85.34 52.47C83.34 52.44 81.77 50.83 81.78 48.82C81.78 46.79 83.39 45.2 85.42 45.2H85.48C87.48 45.23 89.05 46.8399 89.04 48.8499C89.04 50.8799 87.43 52.47 85.4 52.47H85.34Z" fill="#233E50"/>
<path d="M66.89 33.93C65.92 33.93 65 33.54 64.31 32.84C63.62 32.14 63.24 31.21 63.26 30.24C63.29 28.27 64.92 26.67 66.89 26.67H66.92C68.9 26.69 70.52 28.31 70.52 30.3C70.52 32.29 68.9 33.91 66.92 33.93H66.89Z" fill="#233E50"/>
<path d="M85.33 42.75C83.52 42.7 82.11 41.24 82.13 39.43C82.15 37.63 83.62 36.17 85.41 36.17H85.51C87.32 36.22 88.73 37.68 88.71 39.49C88.69 41.29 87.22 42.75 85.43 42.75C85.43 42.75 85.37 42.75 85.33 42.75Z" fill="#233E50"/>
<path d="M57.73 25.01C56.65 25.01 55.67 24.61 54.96 23.88C54.24 23.15 53.86 22.14 53.87 21.05C53.91 18.91 55.57 17.29 57.74 17.29H57.79C59.97 17.32 61.6 18.99 61.59 21.18C61.58 23.36 59.92 25.01 57.74 25.01H57.73Z" fill="#233E50"/>
<path d="M76.03 24.13C74.38 24.13 73.07 22.82 73.06 21.17C73.06 19.51 74.34 18.19 75.99 18.17H76.03C77.67 18.17 78.98 19.45 79.02 21.07C79.04 21.9 78.74 22.67 78.18 23.24C77.62 23.81 76.86 24.12 76.04 24.12L76.03 24.13Z" fill="#233E50"/>
<path d="M57.71 15.15C55.85 15.14 54.34 13.61 54.36 11.75C54.37 9.87002 55.86 8.40002 57.74 8.40002H57.76C59.62 8.41002 61.12 9.94002 61.11 11.8C61.1 13.68 59.61 15.15 57.73 15.15H57.71Z" fill="#233E50"/>
<path d="M66.84 42.18C65.39 42.15 64.14 40.86 64.17 39.42C64.2 38 65.47 36.75 66.88 36.75H66.93C68.38 36.78 69.63 38.07 69.6 39.51C69.57 40.93 68.3 42.18 66.89 42.18H66.84Z" fill="#233E50"/>
<path d="M48.35 15.1C46.6 15.1 45.05 13.56 45.03 11.81C45.03 10.96 45.38 10.11 46.02 9.46996C46.66 8.82996 47.51 8.45996 48.36 8.45996C50.09 8.45996 51.62 9.93996 51.69 11.67C51.72 12.51 51.39 13.36 50.78 14.02C50.15 14.69 49.3 15.09 48.44 15.11H48.36L48.35 15.1Z" fill="#233E50"/>
<path d="M48.25 24.37C47.37 24.35 46.57 23.99 45.99 23.37C45.4 22.74 45.1 21.9 45.14 21C45.21 19.24 46.59 17.92 48.36 17.92H48.39C49.28 17.92 50.09 18.27 50.69 18.88C51.28 19.49 51.6 20.32 51.59 21.21C51.56 23.01 50.17 24.37 48.36 24.37C48.32 24.37 48.29 24.37 48.25 24.37Z" fill="#233E50"/>
<path d="M85.35 32.6599C84.03 32.6299 83.05 31.5999 83.06 30.2599C83.08 28.9399 84.09 27.9399 85.42 27.9399C85.46 27.9399 85.5 27.9399 85.55 27.9399C86.87 27.9999 87.82 29.0599 87.77 30.3999C87.72 31.7099 86.73 32.6499 85.41 32.6499H85.35V32.6599Z" fill="#233E50"/>
<path d="M66.86 14.1C66.22 14.1 65.63 13.85 65.21 13.42C64.79 12.99 64.56 12.39 64.56 11.75C64.56 10.44 65.57 9.44995 66.89 9.44995C68.24 9.45995 69.22 10.47 69.21 11.8C69.21 13.11 68.2 14.1 66.88 14.1H66.86Z" fill="#233E50"/>
<path d="M57.66 33.03C56.91 33.01 56.23 32.71 55.74 32.19C55.24 31.66 54.99 30.95 55.02 30.2C55.08 28.72 56.25 27.6 57.74 27.6C58.49 27.6 59.18 27.88 59.69 28.4C60.2 28.91 60.47 29.61 60.46 30.36C60.44 31.89 59.27 33.04 57.74 33.04H57.67L57.66 33.03Z" fill="#233E50"/>
<path d="M39.15 14.3801C38.44 14.3601 37.79 14.0701 37.31 13.5601C36.83 13.0501 36.58 12.3801 36.61 11.6801C36.67 10.3001 37.8 9.20005 39.18 9.18005H39.21C39.91 9.18005 40.56 9.45005 41.05 9.95005C41.54 10.4501 41.81 11.1001 41.81 11.8001C41.81 13.2201 40.63 14.3801 39.21 14.3801H39.15Z" fill="#233E50"/>
<path d="M66.88 50.74C66.34 50.74 65.85 50.54 65.51 50.2C65.17 49.85 64.98 49.37 64.98 48.82C64.98 47.7 65.77 46.92 66.89 46.92C68.02 46.92 68.8 47.72 68.8 48.84C68.8 49.96 68.01 50.74 66.89 50.74H66.88Z" fill="#233E50"/>
<path d="M39.27 23.62C39.27 23.62 39.18 23.62 39.14 23.62C37.81 23.54 36.89 22.66 36.74 21.33C36.67 20.71 36.88 20.07 37.32 19.56C37.79 19.02 38.45 18.7 39.13 18.67H39.2C40.51 18.67 41.67 19.81 41.69 21.12C41.69 21.76 41.43 22.41 40.95 22.89C40.49 23.36 39.88 23.62 39.27 23.62Z" fill="#233E50"/>
<path d="M1.87998 4.53995C0.819985 4.49995 0.0799848 3.78995 -1.51852e-05 2.71995C-0.0400152 2.19995 0.149985 1.67995 0.499985 1.29995C0.859985 0.919951 1.35998 0.699951 1.87998 0.699951C1.89998 0.699951 1.92998 0.699951 1.94998 0.699951C2.98998 0.739951 3.70998 1.40995 3.82998 2.45995V2.50995C3.84998 3.07995 3.65998 3.58995 3.28998 3.96995C2.92998 4.33995 2.45998 4.53995 1.93998 4.53995C1.91998 4.53995 1.88998 4.53995 1.85998 4.53995H1.87998Z" fill="#233E50"/>
<path d="M1.88999 13.7701C0.819995 13.7301 0.0899946 13.0101 0.00999458 11.9501C-0.0300054 11.4301 0.159995 10.9101 0.509995 10.5301C0.869995 10.1501 1.36999 9.93005 1.88999 9.93005C1.90999 9.93005 1.93999 9.93005 1.95999 9.93005C2.99999 9.97005 3.71999 10.6401 3.83999 11.6901V11.7401C3.85999 12.3101 3.66999 12.8201 3.29999 13.2001C2.94999 13.5701 2.46999 13.7701 1.94999 13.7701C1.91999 13.7701 1.89999 13.7701 1.86999 13.7701H1.88999Z" fill="#233E50"/>
<path d="M1.88999 23C0.819995 22.96 0.0899946 22.24 0.00999458 21.18C-0.0300054 20.66 0.159995 20.14 0.509995 19.76C0.869995 19.38 1.36999 19.16 1.88999 19.16H1.95999C2.99999 19.2 3.71999 19.87 3.83999 20.92V20.97C3.85999 21.54 3.66999 22.05 3.29999 22.43C2.94999 22.8 2.46999 23 1.94999 23C1.91999 23 1.89999 23 1.86999 23H1.88999Z" fill="#233E50"/>
<path d="M1.87998 32.23C0.819985 32.19 0.0799848 31.47 -1.51852e-05 30.41C-0.0400152 29.89 0.149985 29.37 0.499985 28.99C0.859985 28.61 1.35998 28.39 1.87998 28.39H1.94998C2.99998 28.43 3.71998 29.1 3.82998 30.15V30.2C3.84998 30.77 3.65998 31.28 3.28998 31.66C2.92998 32.03 2.45998 32.23 1.93998 32.23H1.85998H1.87998Z" fill="#233E50"/>
<path d="M1.87998 41.45C0.819985 41.41 0.0799848 40.69 -1.51852e-05 39.63C-0.0400152 39.11 0.149985 38.59 0.499985 38.21C0.859985 37.83 1.35998 37.61 1.87998 37.61H1.94998C2.99998 37.65 3.71998 38.32 3.82998 39.37V39.42C3.84998 39.99 3.65998 40.5 3.28998 40.88C2.92998 41.25 2.45998 41.45 1.93998 41.45H1.85998H1.87998Z" fill="#233E50"/>
<path d="M1.87998 50.68C0.819985 50.64 0.0799848 49.92 -1.51852e-05 48.86C-0.0400152 48.34 0.149985 47.82 0.499985 47.44C0.859985 47.06 1.35998 46.84 1.87998 46.84C1.89998 46.84 1.92998 46.84 1.94998 46.84C2.98998 46.88 3.70998 47.55 3.82998 48.6V48.65C3.84998 49.22 3.65998 49.73 3.28998 50.11C2.92998 50.48 2.45998 50.68 1.93998 50.68C1.91998 50.68 1.88998 50.68 1.85998 50.68H1.87998Z" fill="#233E50"/>
<path d="M1.88999 59.9099C0.819995 59.8699 0.0899946 59.1499 0.00999458 58.0899C-0.0300054 57.5699 0.159995 57.0499 0.509995 56.6699C0.869995 56.2899 1.36999 56.0699 1.88999 56.0699C1.90999 56.0699 1.93999 56.0699 1.95999 56.0699C2.99999 56.1099 3.71999 56.7799 3.83999 57.8299V57.8799C3.85999 58.4499 3.66999 58.9599 3.29999 59.3399C2.94999 59.7099 2.46999 59.9099 1.94999 59.9099C1.91999 59.9099 1.89999 59.9099 1.86999 59.9099H1.88999Z" fill="#233E50"/>
<path d="M1.88999 69.14C0.819995 69.1 0.0899946 68.38 0.00999458 67.32C-0.0300054 66.8 0.159995 66.28 0.509995 65.9C0.869995 65.52 1.36999 65.3 1.88999 65.3H1.95999C2.99999 65.34 3.71999 66.01 3.83999 67.06V67.11C3.85999 67.68 3.66999 68.19 3.29999 68.57C2.94999 68.94 2.46999 69.14 1.94999 69.14C1.91999 69.14 1.89999 69.14 1.86999 69.14H1.88999Z" fill="#233E50"/>
<path d="M1.87998 78.36C0.819985 78.32 0.0799848 77.6 -1.51852e-05 76.54C-0.0400152 76.02 0.149985 75.5 0.499985 75.12C0.859985 74.74 1.35998 74.52 1.87998 74.52H1.94998C2.99998 74.56 3.71998 75.23 3.82998 76.28V76.33C3.84998 76.9 3.65998 77.41 3.28998 77.79C2.92998 78.16 2.45998 78.36 1.93998 78.36C1.91998 78.36 1.88998 78.36 1.85998 78.36H1.87998Z" fill="#233E50"/>
<path d="M1.87998 87.59C0.819985 87.55 0.0799848 86.83 -1.51852e-05 85.77C-0.0400152 85.25 0.149985 84.73 0.499985 84.35C0.859985 83.97 1.35998 83.75 1.87998 83.75H1.94998C2.99998 83.79 3.71998 84.46 3.82998 85.51V85.56C3.84998 86.13 3.65998 86.64 3.28998 87.02C2.92998 87.39 2.45998 87.59 1.93998 87.59C1.91998 87.59 1.88998 87.59 1.85998 87.59H1.87998Z" fill="#233E50"/>
<path d="M1.88999 96.82C0.819995 96.78 0.0899946 96.06 0.00999458 95C-0.0300054 94.48 0.159995 93.96 0.509995 93.58C0.859995 93.2 1.36999 92.98 1.88999 92.98C1.90999 92.98 1.93999 92.98 1.95999 92.98C2.99999 93.02 3.71999 93.69 3.83999 94.74V94.79C3.85999 95.36 3.66999 95.87 3.29999 96.25C2.93999 96.62 2.46999 96.82 1.94999 96.82C1.91999 96.82 1.89999 96.82 1.86999 96.82H1.88999Z" fill="#233E50"/>
<path d="M48.32 32.23C47.25 32.19 46.52 31.47 46.44 30.41C46.4 29.89 46.59 29.37 46.94 28.99C47.3 28.61 47.8 28.39 48.32 28.39H48.39C49.43 28.43 50.15 29.1 50.27 30.15V30.22C50.29 30.77 50.1 31.28 49.73 31.66C49.37 32.03 48.9 32.23 48.38 32.23C48.36 32.23 48.33 32.23 48.31 32.23H48.32Z" fill="#233E50"/>
<path d="M39.16 4.53995C38.09 4.49995 37.36 3.77995 37.28 2.71995C37.24 2.19995 37.43 1.67995 37.78 1.29995C38.14 0.919951 38.64 0.699951 39.16 0.699951H39.23C40.27 0.739951 40.99 1.40995 41.11 2.45995V2.50995C41.13 3.07995 40.94 3.58995 40.57 3.96995C40.21 4.33995 39.74 4.53995 39.22 4.53995C39.19 4.53995 39.17 4.53995 39.14 4.53995H39.16Z" fill="#233E50"/>
<path d="M57.69 4.53995C56.62 4.49995 55.89 3.77995 55.81 2.71995C55.77 2.19995 55.96 1.67995 56.31 1.29995C56.67 0.919951 57.17 0.699951 57.69 0.699951H57.76C58.8 0.739951 59.52 1.40995 59.64 2.45995V2.50995C59.66 3.07995 59.47 3.58995 59.1 3.96995C58.74 4.33995 58.27 4.53995 57.75 4.53995C57.72 4.53995 57.7 4.53995 57.67 4.53995H57.69Z" fill="#233E50"/>
<path d="M48.32 4.99C46.98 4.94 46.09 4.08 46 2.74C45.96 2.1 46.18 1.46 46.62 0.99C47.06 0.52 47.67 0.25 48.31 0.25C48.34 0.25 48.37 0.25 48.4 0.25C49.71 0.3 50.58 1.11 50.73 2.43V2.48C50.76 3.18 50.52 3.82 50.06 4.29C49.62 4.74 49.04 4.99 48.41 4.99C48.38 4.99 48.35 4.99 48.32 4.99Z" fill="#233E50"/>
<path d="M76 13.7C74.94 13.66 74.2 12.94 74.12 11.88C74.08 11.36 74.27 10.84 74.62 10.46C74.98 10.08 75.48 9.85999 76 9.85999H76.07C77.12 9.89999 77.84 10.57 77.95 11.62V11.69C77.97 12.24 77.78 12.75 77.41 13.13C77.06 13.5 76.58 13.7 76.06 13.7C76.03 13.7 76.01 13.7 75.98 13.7H76Z" fill="#233E50"/>
<path d="M76.02 71.56C73.7 71.55 71.79 69.65 71.77 67.33C71.76 66.2 72.2 65.12 73.02 64.3C73.84 63.48 74.91 63.02 76.04 63.02C78.38 63.03 80.29 64.93 80.31 67.25C80.32 68.38 79.88 69.46 79.06 70.28C78.24 71.1 77.17 71.56 76.04 71.56H76.02Z" fill="#233E50"/>
<path d="M76.06 80.55C73.77 80.55 71.96 78.77 71.94 76.5C71.92 74.22 73.67 72.39 75.93 72.34H76.02C78.31 72.34 80.12 74.12 80.14 76.39C80.16 78.67 78.41 80.5 76.15 80.55H76.05H76.06Z" fill="#233E50"/>
<path d="M76.04 61.98C73.8 61.98 71.98 60.16 71.97 57.92C71.97 56.84 72.39 55.82 73.16 55.05C73.93 54.28 74.95 53.86 76.03 53.86H76.05C78.24 53.87 80.06 55.67 80.09 57.86C80.1 58.95 79.69 59.98 78.93 60.76C78.17 61.54 77.15 61.98 76.06 61.99H76.03L76.04 61.98Z" fill="#233E50"/>
<path d="M66.86 89.4C64.86 89.38 63.13 87.67 63.08 85.66C63.06 84.69 63.45 83.72 64.16 82.98C64.88 82.23 65.86 81.8 66.85 81.79H66.89C68.91 81.79 70.68 83.57 70.69 85.59C70.69 86.56 70.28 87.54 69.56 88.26C68.84 88.98 67.87 89.4 66.9 89.4H66.86Z" fill="#233E50"/>
<path d="M85.43 61.55C83.39 61.55 81.79 59.96 81.79 57.93C81.79 55.92 83.35 54.31 85.35 54.28H85.41C87.45 54.28 89.05 55.87 89.05 57.9C89.05 59.91 87.49 61.51 85.49 61.55H85.43Z" fill="#233E50"/>
<path d="M66.89 80.0701C64.92 80.0701 63.3 78.4701 63.26 76.5001C63.24 75.5301 63.62 74.6101 64.31 73.9001C65 73.1901 65.92 72.8101 66.89 72.8101H66.92C68.9 72.8301 70.52 74.4501 70.52 76.4401C70.52 78.4201 68.91 80.0501 66.92 80.0701H66.89Z" fill="#233E50"/>
<path d="M85.41 70.58C83.61 70.58 82.14 69.12 82.13 67.32C82.11 65.51 83.52 64.05 85.33 64H85.43C87.22 64 88.7 65.46 88.71 67.26C88.73 69.07 87.32 70.53 85.51 70.58H85.41Z" fill="#233E50"/>
<path d="M57.74 89.45C55.57 89.45 53.91 87.83 53.87 85.69C53.85 84.6 54.23 83.59 54.96 82.86C55.67 82.13 56.66 81.73 57.73 81.73C59.92 81.73 61.57 83.38 61.59 85.56C61.6 87.75 59.97 89.42 57.8 89.45H57.74Z" fill="#233E50"/>
<path d="M75.99 88.58C74.34 88.56 73.05 87.24 73.06 85.58C73.06 83.93 74.37 82.62 76.03 82.62C76.86 82.62 77.62 82.93 78.18 83.5C78.74 84.07 79.04 84.85 79.02 85.67C78.99 87.3 77.67 88.57 76.03 88.57H75.99V88.58Z" fill="#233E50"/>
<path d="M57.73 98.35C55.85 98.35 54.37 96.88 54.35 95C54.34 93.14 55.84 91.61 57.7 91.6H57.72C59.57 91.6 61.09 93.1 61.1 94.95C61.11 96.81 59.61 98.34 57.75 98.35H57.73Z" fill="#233E50"/>
<path d="M66.89 69.9999C65.47 69.9999 64.21 68.7499 64.18 67.3299C64.15 65.8899 65.4 64.5999 66.85 64.5699H66.9C68.32 64.5699 69.58 65.8199 69.61 67.2399C69.64 68.6799 68.39 69.9699 66.94 69.9999H66.9H66.89Z" fill="#233E50"/>
<path d="M48.36 98.3C47.51 98.3 46.66 97.93 46.02 97.28C45.38 96.64 45.02 95.78 45.03 94.94C45.05 93.18 46.6 91.64 48.35 91.64H48.42C49.29 91.66 50.14 92.06 50.77 92.73C51.38 93.39 51.72 94.24 51.68 95.08C51.61 96.81 50.09 98.28 48.37 98.29L48.36 98.3Z" fill="#233E50"/>
<path d="M48.36 88.82C46.59 88.82 45.21 87.5 45.14 85.74C45.11 84.84 45.41 84 45.99 83.37C46.57 82.75 47.37 82.39 48.25 82.37C48.28 82.37 48.32 82.37 48.35 82.37C50.16 82.37 51.54 83.73 51.58 85.53C51.6 86.42 51.28 87.25 50.68 87.86C50.09 88.47 49.27 88.81 48.39 88.82H48.36Z" fill="#233E50"/>
<path d="M85.42 78.8C84.09 78.8 83.08 77.8 83.06 76.48C83.04 75.15 84.02 74.12 85.35 74.08H85.42C86.74 74.08 87.73 75.03 87.78 76.33C87.83 77.67 86.87 78.73 85.56 78.79C85.52 78.79 85.47 78.79 85.43 78.79L85.42 78.8Z" fill="#233E50"/>
<path d="M66.89 97.3C65.57 97.3 64.57 96.31 64.56 95C64.56 94.36 64.79 93.76 65.21 93.33C65.63 92.9 66.22 92.66 66.86 92.65C68.2 92.65 69.2 93.64 69.21 94.95C69.21 95.59 68.98 96.19 68.56 96.62C68.14 97.05 67.55 97.29 66.91 97.3H66.89Z" fill="#233E50"/>
<path d="M57.73 79.16C56.24 79.16 55.07 78.04 55.01 76.56C54.98 75.8 55.24 75.1 55.73 74.57C56.22 74.04 56.9 73.75 57.65 73.73H57.72C59.26 73.73 60.43 74.88 60.45 76.41C60.45 77.16 60.18 77.86 59.68 78.37C59.17 78.88 58.48 79.17 57.73 79.17V79.16Z" fill="#233E50"/>
<path d="M39.18 97.57C37.79 97.56 36.66 96.46 36.6 95.07C36.57 94.37 36.82 93.7 37.3 93.19C37.78 92.67 38.43 92.38 39.14 92.37H39.2C40.63 92.37 41.79 93.53 41.8 94.95C41.8 95.65 41.53 96.31 41.04 96.8C40.55 97.3 39.89 97.57 39.2 97.57H39.17H39.18Z" fill="#233E50"/>
<path d="M66.89 59.82C65.77 59.82 64.99 59.04 64.98 57.92C64.98 57.38 65.16 56.89 65.51 56.54C65.86 56.19 66.34 56 66.88 56C68.01 56 68.79 56.78 68.8 57.9C68.8 59.02 68.02 59.81 66.9 59.82H66.89Z" fill="#233E50"/>
<path d="M39.13 88.08C38.45 88.06 37.79 87.73 37.32 87.19C36.88 86.68 36.67 86.04 36.74 85.42C36.89 84.09 37.81 83.21 39.14 83.13C39.18 83.13 39.23 83.13 39.27 83.13C39.88 83.13 40.49 83.4 40.95 83.86C41.43 84.34 41.7 84.99 41.69 85.63C41.68 86.94 40.52 88.08 39.21 88.08H39.14H39.13Z" fill="#233E50"/>
<path d="M1.89 106.05C1.37 106.05 0.860002 105.83 0.510002 105.45C0.150002 105.07 -0.0299984 104.55 0.0100016 104.03C0.0800016 102.97 0.820001 102.25 1.89 102.21C1.91 102.21 1.94 102.21 1.97 102.21C2.48 102.21 2.96 102.41 3.32 102.78C3.69 103.16 3.88 103.67 3.87 104.22V104.27C3.75 105.34 3.03 106.01 1.99 106.05C1.96 106.05 1.94 106.05 1.91 106.05H1.89Z" fill="#233E50"/>
<path d="M48.33 78.36C47.81 78.36 47.3 78.14 46.95 77.76C46.59 77.38 46.41 76.86 46.45 76.34C46.52 75.28 47.26 74.56 48.33 74.52C48.36 74.52 48.38 74.52 48.41 74.52C48.92 74.52 49.4 74.72 49.76 75.09C50.13 75.47 50.32 75.98 50.31 76.53V76.6C50.19 77.64 49.47 78.31 48.43 78.36C48.4 78.36 48.38 78.36 48.35 78.36H48.33Z" fill="#233E50"/>
<path d="M39.17 106.05C38.65 106.05 38.14 105.83 37.79 105.45C37.43 105.07 37.25 104.55 37.29 104.03C37.36 102.97 38.1 102.25 39.17 102.21C39.2 102.21 39.22 102.21 39.25 102.21C39.76 102.21 40.24 102.41 40.6 102.78C40.97 103.16 41.16 103.67 41.15 104.22V104.27C41.03 105.34 40.31 106.01 39.27 106.05C39.25 106.05 39.22 106.05 39.19 106.05H39.17Z" fill="#233E50"/>
<path d="M57.7 106.05C57.18 106.05 56.67 105.83 56.32 105.45C55.97 105.07 55.78 104.55 55.82 104.03C55.89 102.97 56.63 102.25 57.7 102.21C57.73 102.21 57.75 102.21 57.78 102.21C58.29 102.21 58.77 102.41 59.13 102.78C59.5 103.16 59.69 103.67 59.68 104.22V104.27C59.56 105.34 58.84 106.01 57.8 106.05H57.73H57.7Z" fill="#233E50"/>
<path d="M48.31 106.5C47.67 106.5 47.05 106.23 46.61 105.76C46.17 105.29 45.95 104.65 45.99 104.01C46.08 102.67 46.97 101.81 48.31 101.76C48.34 101.76 48.37 101.76 48.4 101.76C49.03 101.76 49.61 102.01 50.05 102.46C50.51 102.93 50.75 103.57 50.72 104.25V104.3C50.57 105.64 49.7 106.45 48.39 106.5C48.36 106.5 48.33 106.5 48.3 106.5H48.31Z" fill="#233E50"/>
<path d="M76.01 96.89C75.49 96.89 74.98 96.67 74.63 96.29C74.27 95.91 74.09 95.39 74.13 94.87C74.2 93.81 74.94 93.09 76.01 93.05C76.03 93.05 76.06 93.05 76.09 93.05C76.6 93.05 77.08 93.25 77.44 93.62C77.81 94 78 94.51 77.99 95.06V95.13C77.87 96.17 77.15 96.85 76.11 96.89C76.09 96.89 76.06 96.89 76.03 96.89H76.01Z" fill="#233E50"/>
<path d="M20.51 89.79C19.41 89.79 18.32 89.32 17.52 88.51C16.72 87.69 16.29 86.63 16.31 85.53C16.35 83.25 18.24 81.4 20.51 81.4C21.61 81.4 22.7 81.87 23.5 82.68C24.3 83.5 24.73 84.56 24.71 85.66C24.67 87.94 22.79 89.79 20.52 89.79H20.51Z" fill="#233E50"/>
<path d="M20.5 62.11C19.4 62.11 18.32 61.65 17.52 60.84C16.72 60.03 16.29 58.97 16.3 57.86C16.33 55.58 18.21 53.72 20.48 53.71C21.59 53.71 22.68 54.17 23.47 54.98C24.27 55.79 24.7 56.85 24.69 57.96C24.66 60.24 22.78 62.1 20.51 62.11H20.49H20.5Z" fill="#233E50"/>
<path d="M20.53 71.48C20.53 71.48 20.43 71.48 20.38 71.48C18.09 71.39 16.26 69.49 16.3 67.22C16.34 64.98 18.25 63.08 20.47 63.08C20.52 63.08 20.57 63.08 20.62 63.08C22.91 63.17 24.74 65.07 24.7 67.34C24.66 69.58 22.75 71.48 20.53 71.48Z" fill="#233E50"/>
<path d="M20.51 80.64C19.41 80.64 18.32 80.18 17.53 79.37C16.73 78.55 16.3 77.5 16.32 76.39C16.36 74.11 18.24 72.25 20.51 72.25C21.62 72.25 22.71 72.71 23.5 73.52C24.3 74.34 24.73 75.39 24.71 76.5C24.67 78.78 22.79 80.64 20.52 80.64H20.51Z" fill="#233E50"/>
<path d="M20.51 98.81C19.47 98.81 18.5 98.41 17.77 97.67C17.04 96.93 16.65 95.95 16.66 94.91C16.69 92.82 18.41 91.12 20.5 91.12C21.54 91.12 22.51 91.52 23.24 92.26C23.97 93 24.36 93.98 24.35 95.02C24.32 97.11 22.6 98.81 20.51 98.81Z" fill="#233E50"/>
<path d="M11.14 60.85C9.51999 60.85 8.21999 59.58 8.19999 57.96C8.18999 57.16 8.47999 56.41 9.02999 55.84C9.57999 55.28 10.32 54.97 11.12 54.96C11.93 54.96 12.67 55.27 13.23 55.82C13.79 56.37 14.08 57.12 14.08 57.92C14.07 59.51 12.82 60.79 11.23 60.84H11.14V60.85Z" fill="#233E50"/>
<path d="M11.1 70.23C10.3 70.23 9.56001 69.9 9.02001 69.34C8.47001 68.77 8.18001 68.02 8.20001 67.22C8.24001 65.61 9.53001 64.36 11.14 64.36C11.18 64.36 11.21 64.36 11.25 64.36C12.04 64.39 12.77 64.72 13.3 65.3C13.84 65.88 14.11 66.65 14.07 67.45C13.99 69.01 12.7 70.23 11.13 70.23H11.1Z" fill="#233E50"/>
<path d="M11.1 88.54C10.3 88.54 9.56001 88.21 9.02001 87.65C8.47001 87.08 8.18001 86.33 8.20001 85.53C8.24001 83.92 9.53001 82.67 11.14 82.67C11.18 82.67 11.21 82.67 11.25 82.67C12.04 82.7 12.77 83.03 13.3 83.61C13.84 84.19 14.11 84.96 14.07 85.76C13.99 87.32 12.7 88.54 11.13 88.54H11.1Z" fill="#233E50"/>
<path d="M11.14 79.38C10.35 79.38 9.61001 79.08 9.06001 78.53C8.51001 77.98 8.20001 77.24 8.20001 76.44C8.20001 74.79 9.49001 73.5 11.14 73.5H11.17C11.97 73.5 12.71 73.83 13.25 74.39C13.8 74.96 14.09 75.71 14.07 76.51C14.03 78.1 12.76 79.35 11.17 79.37H11.13L11.14 79.38Z" fill="#233E50"/>
<path d="M11.13 97.73C11.08 97.73 11.02 97.73 10.96 97.73C9.41999 97.65 8.29999 96.4 8.36999 94.85C8.42999 93.35 9.61999 92.22 11.13 92.22C11.16 92.22 11.19 92.22 11.22 92.22C11.99 92.24 12.68 92.56 13.18 93.1C13.69 93.66 13.93 94.4 13.88 95.18C13.78 96.66 12.62 97.73 11.12 97.73H11.13Z" fill="#233E50"/>
<path d="M20.47 106.49C19.16 106.44 18.29 105.63 18.14 104.31V104.24C18.11 103.56 18.35 102.92 18.81 102.45C19.25 102 19.83 101.75 20.46 101.75C20.49 101.75 20.52 101.75 20.55 101.75C21.89 101.8 22.78 102.67 22.87 104C22.91 104.64 22.69 105.28 22.25 105.75C21.81 106.22 21.19 106.49 20.55 106.49C20.52 106.49 20.49 106.49 20.46 106.49H20.47Z" fill="#233E50"/>
<path d="M11.1 106.05C10.06 106.01 9.34 105.34 9.22 104.29V104.22C9.2 103.67 9.39 103.16 9.76 102.78C10.11 102.41 10.59 102.21 11.11 102.21C11.14 102.21 11.16 102.21 11.19 102.21C12.25 102.25 12.99 102.97 13.07 104.03C13.11 104.55 12.92 105.07 12.57 105.45C12.22 105.83 11.71 106.05 11.19 106.05C11.17 106.05 11.14 106.05 11.12 106.05H11.1Z" fill="#233E50"/>
<path d="M20.51 25.35C18.24 25.35 16.36 23.49 16.31 21.22C16.29 20.11 16.72 19.05 17.52 18.24C18.32 17.43 19.4 16.97 20.51 16.96C22.78 16.96 24.66 18.82 24.71 21.09C24.73 22.2 24.3 23.26 23.5 24.07C22.71 24.88 21.62 25.34 20.51 25.35Z" fill="#233E50"/>
<path d="M20.49 53.03C18.22 53.03 16.34 51.16 16.31 48.88C16.29 47.77 16.73 46.71 17.53 45.9C18.32 45.09 19.41 44.63 20.51 44.63C22.8 44.63 24.68 46.5 24.71 48.78C24.73 49.89 24.29 50.95 23.49 51.76C22.7 52.57 21.61 53.03 20.51 53.03H20.5H20.49Z" fill="#233E50"/>
<path d="M20.48 43.66C18.26 43.66 16.35 41.76 16.31 39.52C16.27 37.26 18.1 35.35 20.39 35.26C20.44 35.26 20.49 35.26 20.54 35.26C22.76 35.26 24.67 37.16 24.71 39.4C24.75 41.66 22.92 43.57 20.63 43.65C20.58 43.65 20.53 43.65 20.48 43.65V43.66Z" fill="#233E50"/>
<path d="M20.5 34.5C18.23 34.5 16.35 32.64 16.31 30.36C16.29 29.25 16.72 28.19 17.52 27.38C18.31 26.57 19.4 26.11 20.5 26.11C22.78 26.11 24.66 27.97 24.7 30.25C24.72 31.36 24.29 32.42 23.49 33.23C22.7 34.04 21.61 34.5 20.51 34.5H20.5Z" fill="#233E50"/>
<path d="M20.51 15.62C18.42 15.62 16.69 13.92 16.67 11.83C16.66 10.78 17.05 9.80004 17.78 9.06004C18.5 8.33004 19.48 7.92004 20.52 7.92004C22.61 7.92004 24.34 9.62004 24.36 11.71C24.37 12.76 23.98 13.74 23.25 14.48C22.53 15.21 21.56 15.62 20.51 15.62Z" fill="#233E50"/>
<path d="M11.13 51.77C10.32 51.77 9.58001 51.45 9.03001 50.89C8.48001 50.33 8.18001 49.57 8.20001 48.77C8.23001 47.15 9.52001 45.88 11.14 45.88H11.23C12.82 45.93 14.07 47.21 14.08 48.8C14.08 49.6 13.79 50.34 13.23 50.9C12.68 51.46 11.93 51.76 11.14 51.76L11.13 51.77Z" fill="#233E50"/>
<path d="M11.14 42.4C9.53001 42.4 8.24001 41.14 8.20001 39.54C8.18001 38.74 8.47001 37.99 9.02001 37.42C9.57001 36.85 10.31 36.54 11.1 36.53H11.13C12.7 36.53 13.99 37.75 14.07 39.31C14.11 40.11 13.84 40.88 13.3 41.46C12.77 42.04 12.04 42.37 11.25 42.4H11.14Z" fill="#233E50"/>
<path d="M11.14 24.09C9.53001 24.09 8.24001 22.83 8.20001 21.23C8.18001 20.43 8.47001 19.68 9.02001 19.11C9.57001 18.54 10.31 18.23 11.1 18.22H11.13C12.7 18.22 13.99 19.44 14.07 21C14.11 21.8 13.84 22.57 13.3 23.15C12.77 23.73 12.04 24.06 11.25 24.09H11.14Z" fill="#233E50"/>
<path d="M11.14 33.25C9.49001 33.25 8.20001 31.96 8.20001 30.31C8.20001 29.52 8.50001 28.78 9.06001 28.22C9.61001 27.67 10.35 27.37 11.14 27.37H11.18C12.77 27.39 14.04 28.65 14.08 30.23C14.1 31.03 13.81 31.78 13.26 32.35C12.71 32.92 11.97 33.23 11.18 33.24H11.14V33.25Z" fill="#233E50"/>
<path d="M11.14 14.54C9.63001 14.54 8.44001 13.41 8.38001 11.91C8.32001 10.35 9.43001 9.11003 10.97 9.03003C11.02 9.03003 11.08 9.03003 11.14 9.03003C12.64 9.03003 13.8 10.1 13.89 11.58C13.94 12.37 13.69 13.11 13.19 13.66C12.69 14.21 12 14.52 11.23 14.54H11.14Z" fill="#233E50"/>
<path d="M20.46 4.99C19.83 4.99 19.25 4.74 18.81 4.29C18.35 3.82 18.11 3.18 18.14 2.5V2.45C18.29 1.12 19.15 0.3 20.47 0.25C20.5 0.25 20.53 0.25 20.56 0.25C21.2 0.25 21.82 0.52 22.26 0.99C22.7 1.46 22.92 2.09 22.88 2.74C22.79 4.08 21.9 4.94 20.56 4.99C20.53 4.99 20.5 4.99 20.47 4.99H20.46Z" fill="#233E50"/>
<path d="M11.1 4.53995C10.59 4.53995 10.11 4.33995 9.74999 3.96995C9.37999 3.58995 9.18999 3.07995 9.19999 2.52995V2.45995C9.31999 1.41995 10.04 0.739951 11.08 0.699951C11.1 0.699951 11.13 0.699951 11.15 0.699951C11.67 0.699951 12.18 0.919951 12.53 1.29995C12.89 1.67995 13.07 2.19995 13.03 2.71995C12.96 3.77995 12.22 4.49995 11.15 4.53995C11.13 4.53995 11.1 4.53995 11.08 4.53995H11.1Z" fill="#233E50"/>
<path d="M43.71 61.32C48.2884 61.32 52 57.6084 52 53.03C52 48.4515 48.2884 44.74 43.71 44.74C39.1315 44.74 35.42 48.4515 35.42 53.03C35.42 57.6084 39.1315 61.32 43.71 61.32Z" fill="#DF4C6C"/>
<path d="M118.74 40.01H114.71C114.4 40.01 114.19 40.21 114.19 40.53V73.42C114.19 73.73 114.39 73.94 114.71 73.94H118.74C119.07 73.94 119.28 73.74 119.28 73.42V40.53C119.28 40.22 119.07 40.01 118.74 40.01Z" fill="#233E50"/>
<path d="M154.58 40.0799H150.55C150.28 40.0799 150.11 40.2499 150.11 40.5199V68.8999V68.9199C150.1 68.9199 150.07 68.9199 150.03 68.8499L135.68 40.4199C135.57 40.1999 135.38 40.0699 135.14 40.0699H128.13C127.86 40.0699 127.69 40.2399 127.69 40.5099V73.3999C127.69 73.6699 127.86 73.8399 128.13 73.8399H132.16C132.45 73.8399 132.63 73.6699 132.63 73.3999V45.0199C132.67 45.0199 132.69 45.0199 132.69 45.0299L147.07 73.4999L147.09 73.5299C147.28 73.7999 147.49 73.8499 147.64 73.8499H154.61C154.88 73.8499 155.05 73.6799 155.05 73.4099V40.5199C155.05 40.2499 154.88 40.0799 154.61 40.0799H154.58Z" fill="#233E50"/>
<path d="M186.18 40.08H163.95C163.66 40.08 163.48 40.25 163.48 40.52V73.41C163.48 73.68 163.66 73.85 163.95 73.85H167.98C168.25 73.85 168.42 73.68 168.42 73.41V58.72C168.42 58.72 168.42 58.71 168.42 58.7C168.42 58.7 168.43 58.7 168.44 58.7H185.94C186.21 58.7 186.38 58.52 186.38 58.23V54.69C186.38 54.42 186.21 54.25 185.94 54.25H168.43C168.43 54.25 168.43 54.25 168.43 54.21V44.57C168.43 44.57 168.43 44.52 168.45 44.53H186.19C186.46 44.53 186.63 44.36 186.63 44.09V40.53C186.63 40.26 186.46 40.09 186.19 40.09L186.18 40.08Z" fill="#233E50"/>
<path d="M279.21 40.29H272.96C272.81 40.29 272.71 40.37 272.66 40.52L261.48 73.41C261.46 73.47 261.48 73.52 261.5 73.55C261.53 73.58 261.57 73.6 261.62 73.62C261.67 73.64 261.71 73.64 261.76 73.64H266.19C266.3 73.64 266.38 73.56 266.42 73.41L269.19 64.9C269.24 64.76 269.33 64.69 269.47 64.69H282.09C282.29 64.69 282.41 64.77 282.44 64.92L285.18 73.41C285.23 73.56 285.31 73.64 285.43 73.64H290.32C290.4 73.64 290.47 73.6 290.52 73.53C290.57 73.45 290.59 73.37 290.57 73.26L279.52 40.37C279.47 40.31 279.36 40.28 279.2 40.28L279.21 40.29ZM281.1 60.76C281.1 60.86 281.03 60.91 280.89 60.91H270.76C270.62 60.91 270.55 60.86 270.55 60.76C270.55 60.73 270.55 60.69 270.57 60.66L275.61 45.04C275.66 44.9 275.73 44.83 275.85 44.83C275.97 44.83 276.04 44.9 276.09 45.04L281.07 60.66C281.07 60.66 281.09 60.73 281.09 60.76H281.1Z" fill="#233E50"/>
<path d="M318.01 40.08H291.9C291.63 40.08 291.46 40.25 291.46 40.52V44.08C291.46 44.35 291.63 44.52 291.9 44.52H302.46C302.46 44.52 302.47 44.52 302.49 44.55V73.41C302.49 73.68 302.67 73.85 302.96 73.85H306.99C307.26 73.85 307.43 73.68 307.43 73.41V44.57C307.43 44.57 307.43 44.52 307.45 44.53H318.02C318.31 44.53 318.49 44.36 318.49 44.09V40.53C318.49 40.26 318.31 40.09 318.02 40.09L318.01 40.08Z" fill="#233E50"/>
<path d="M329.03 40.01H325C324.69 40.01 324.48 40.21 324.48 40.53V73.42C324.48 73.73 324.68 73.94 325 73.94H329.03C329.36 73.94 329.57 73.74 329.57 73.42V40.53C329.57 40.22 329.36 40.01 329.03 40.01Z" fill="#233E50"/>
<path d="M234.82 40.01H230.79C230.48 40.01 230.27 40.21 230.27 40.53V73.42C230.27 73.73 230.47 73.94 230.79 73.94H234.82C235.15 73.94 235.36 73.74 235.36 73.42V40.53C235.36 40.22 235.15 40.01 234.82 40.01Z" fill="#233E50"/>
<path d="M401.93 40.0799H397.9C397.63 40.0799 397.46 40.2499 397.46 40.5199V68.8999V68.9199C397.45 68.9199 397.42 68.9199 397.38 68.8499L383.03 40.4199C382.92 40.1999 382.73 40.0699 382.49 40.0699H375.48C375.21 40.0699 375.04 40.2399 375.04 40.5099V73.3999C375.04 73.6699 375.21 73.8399 375.48 73.8399H379.51C379.8 73.8399 379.98 73.6699 379.98 73.3999V45.0199H380.04L394.42 73.4899L394.44 73.5199C394.63 73.7899 394.84 73.8399 394.99 73.8399H401.96C402.23 73.8399 402.4 73.6699 402.4 73.3999V40.5099C402.4 40.2399 402.23 40.0699 401.96 40.0699L401.93 40.0799Z" fill="#233E50"/>
<path d="M241.64 39.9H240.49V45.13H241.64C247.53 45.56 251.89 50.22 251.89 56.6V56.74V56.89C251.89 63.26 247.53 67.92 241.64 68.35H240.49V73.58H241.64C245.65 73.38 249.6 71.83 252.29 69.21C255.42 66.16 257.07 61.85 257.07 56.74C257.07 51.63 255.42 47.32 252.29 44.27C249.6 41.65 245.65 40.1 241.64 39.9Z" fill="#233E50"/>
<path d="M352.77 74.47C348.35 74.47 344.18 72.7 341.03 69.5C337.79 66.2 336.01 61.71 336.01 56.86C336.01 52.01 337.79 47.52 341.03 44.22C344.18 41.01 348.33 39.25 352.73 39.25C357.13 39.25 361.28 41.02 364.43 44.22C367.67 47.52 369.45 52.01 369.45 56.86C369.45 61.71 367.68 66.2 364.46 69.5C361.33 72.71 357.18 74.47 352.79 74.47H352.77ZM352.72 43.75C345.98 43.75 341.09 49.26 341.09 56.86C341.09 64.46 346 69.97 352.77 69.97C359.54 69.97 364.4 64.46 364.4 56.86C364.4 49.26 359.49 43.75 352.72 43.75Z" fill="#233E50"/>
<path d="M208.16 74.47C203.74 74.47 199.57 72.7 196.42 69.5C193.18 66.2 191.4 61.71 191.4 56.86C191.4 52.01 193.18 47.52 196.42 44.22C199.57 41.01 203.72 39.25 208.12 39.25C212.52 39.25 216.67 41.02 219.82 44.22C223.06 47.52 224.84 52.01 224.84 56.86C224.84 61.71 223.07 66.2 219.85 69.5C216.72 72.71 212.57 74.47 208.18 74.47H208.16ZM208.11 43.75C201.37 43.75 196.48 49.26 196.48 56.86C196.48 64.46 201.39 69.97 208.16 69.97C214.93 69.97 219.79 64.46 219.79 56.86C219.79 49.26 214.88 43.75 208.11 43.75Z" fill="#233E50"/>
<path d="M397.599 106.25C396.787 106.25 396.053 106.113 395.398 105.839C394.749 105.56 394.213 105.163 393.792 104.649C393.376 104.13 393.112 103.514 393 102.799L395.162 102.49C395.315 103.097 395.629 103.565 396.107 103.893C396.584 104.221 397.127 104.385 397.736 104.385C398.076 104.385 398.406 104.333 398.726 104.231C399.046 104.128 399.307 103.976 399.51 103.775C399.718 103.575 399.822 103.327 399.822 103.034C399.822 102.926 399.805 102.823 399.769 102.725C399.739 102.623 399.685 102.527 399.609 102.439C399.533 102.351 399.424 102.268 399.282 102.189C399.145 102.111 398.97 102.04 398.756 101.976L395.909 101.169C395.695 101.11 395.447 101.027 395.162 100.919C394.883 100.811 394.612 100.657 394.348 100.456C394.084 100.256 393.863 99.9913 393.685 99.6633C393.513 99.3304 393.426 98.9119 393.426 98.4077C393.426 97.6978 393.612 97.1079 393.982 96.638C394.353 96.168 394.848 95.818 395.467 95.5879C396.086 95.3579 396.772 95.2453 397.523 95.2502C398.279 95.2599 398.954 95.3848 399.548 95.6246C400.142 95.8645 400.64 96.2145 401.041 96.6747C401.442 97.13 401.731 97.688 401.909 98.3489L399.67 98.7161C399.589 98.3734 399.439 98.0846 399.221 97.8496C399.003 97.6146 398.741 97.4359 398.437 97.3135C398.137 97.1912 397.822 97.1251 397.492 97.1153C397.168 97.1055 396.86 97.1495 396.571 97.2475C396.287 97.3405 396.053 97.4775 395.871 97.6587C395.693 97.8398 395.604 98.0552 395.604 98.3048C395.604 98.5349 395.678 98.7234 395.825 98.8703C395.972 99.0122 396.157 99.1273 396.381 99.2154C396.604 99.3035 396.832 99.3769 397.066 99.4357L398.97 99.935C399.254 100.008 399.569 100.106 399.914 100.229C400.259 100.346 400.589 100.513 400.904 100.728C401.223 100.939 401.485 101.218 401.688 101.565C401.896 101.913 402 102.353 402 102.887C402 103.455 401.876 103.952 401.627 104.378C401.383 104.799 401.053 105.149 400.637 105.428C400.221 105.702 399.749 105.907 399.221 106.044C398.698 106.181 398.157 106.25 397.599 106.25Z" fill="#233E50"/>
<path d="M382 106.25V95.25H384.109L388.891 102.583V95.25H391V106.25H388.891L384.109 98.9167V106.25H382Z" fill="#233E50"/>
<path d="M374 106.25C372.968 106.25 372.078 106.02 371.328 105.561C370.583 105.101 370.008 104.458 369.602 103.632C369.201 102.806 369 101.845 369 100.75C369 99.6549 369.201 98.6942 369.602 97.868C370.008 97.0418 370.583 96.3989 371.328 95.9393C372.078 95.4798 372.968 95.25 374 95.25C375.032 95.25 375.92 95.4798 376.665 95.9393C377.415 96.3989 377.99 97.0418 378.391 97.868C378.797 98.6942 379 99.6549 379 100.75C379 101.845 378.797 102.806 378.391 103.632C377.99 104.458 377.415 105.101 376.665 105.561C375.92 106.02 375.032 106.25 374 106.25ZM374 104.373C374.654 104.382 375.199 104.238 375.633 103.94C376.068 103.642 376.393 103.219 376.607 102.671C376.827 102.124 376.937 101.483 376.937 100.75C376.937 100.017 376.827 99.3811 376.607 98.8433C376.393 98.3056 376.068 97.8876 375.633 97.5893C375.199 97.2911 374.654 97.1371 374 97.1273C373.346 97.1176 372.801 97.2618 372.367 97.56C371.932 97.8582 371.605 98.2811 371.385 98.8287C371.17 99.3762 371.063 100.017 371.063 100.75C371.063 101.483 371.17 102.119 371.385 102.657C371.605 103.194 371.932 103.612 372.367 103.911C372.801 104.209 373.346 104.363 374 104.373Z" fill="#233E50"/>
<path d="M364 106.25V95.25H366V106.25H364Z" fill="#233E50"/>
<path d="M356.463 106.25V97.1903H353V95.25H362V97.1903H358.537V106.25H356.463Z" fill="#233E50"/>
<path d="M347 106.25C346.208 106.25 345.512 106.075 344.911 105.726C344.311 105.372 343.842 104.876 343.505 104.237C343.168 103.599 343 102.848 343 101.985V95.265L344.884 95.25V101.97C344.884 102.324 344.939 102.646 345.048 102.935C345.157 103.224 345.307 103.474 345.498 103.683C345.694 103.893 345.919 104.055 346.174 104.17C346.433 104.279 346.709 104.334 347 104.334C347.3 104.334 347.578 104.277 347.833 104.162C348.092 104.048 348.317 103.885 348.509 103.676C348.7 103.466 348.848 103.217 348.952 102.928C349.061 102.638 349.116 102.319 349.116 101.97V95.25H351V101.985C351 102.848 350.832 103.599 350.495 104.237C350.158 104.876 349.689 105.372 349.089 105.726C348.488 106.075 347.792 106.25 347 106.25Z" fill="#233E50"/>
<path d="M334 106.25V95.25H335.83V104.31H340V106.25H334Z" fill="#233E50"/>
<path d="M326 106.25C324.968 106.25 324.078 106.02 323.328 105.561C322.583 105.101 322.008 104.458 321.602 103.632C321.201 102.806 321 101.845 321 100.75C321 99.6549 321.201 98.6942 321.602 97.868C322.008 97.0418 322.583 96.3989 323.328 95.9393C324.078 95.4798 324.968 95.25 326 95.25C327.032 95.25 327.92 95.4798 328.665 95.9393C329.415 96.3989 329.99 97.0418 330.391 97.868C330.797 98.6942 331 99.6549 331 100.75C331 101.845 330.797 102.806 330.391 103.632C329.99 104.458 329.415 105.101 328.665 105.561C327.92 106.02 327.032 106.25 326 106.25ZM326 104.373C326.654 104.382 327.199 104.238 327.633 103.94C328.068 103.642 328.393 103.219 328.607 102.671C328.827 102.124 328.937 101.483 328.937 100.75C328.937 100.017 328.827 99.3811 328.607 98.8433C328.393 98.3056 328.068 97.8876 327.633 97.5893C327.199 97.2911 326.654 97.1371 326 97.1273C325.346 97.1176 324.801 97.2618 324.367 97.56C323.932 97.8582 323.605 98.2811 323.385 98.8287C323.17 99.3762 323.063 100.017 323.063 100.75C323.063 101.483 323.17 102.119 323.385 102.657C323.605 103.194 323.932 103.612 324.367 103.911C324.801 104.209 325.346 104.363 326 104.373Z" fill="#233E50"/>
<path d="M314.599 106.25C313.787 106.25 313.053 106.113 312.398 105.839C311.749 105.56 311.213 105.163 310.792 104.649C310.376 104.13 310.112 103.514 310 102.799L312.162 102.49C312.315 103.097 312.629 103.565 313.107 103.893C313.584 104.221 314.127 104.385 314.736 104.385C315.076 104.385 315.406 104.333 315.726 104.231C316.046 104.128 316.307 103.976 316.51 103.775C316.718 103.575 316.822 103.327 316.822 103.034C316.822 102.926 316.805 102.823 316.769 102.725C316.739 102.623 316.685 102.527 316.609 102.439C316.533 102.351 316.424 102.268 316.282 102.189C316.145 102.111 315.97 102.04 315.756 101.976L312.909 101.169C312.695 101.11 312.447 101.027 312.162 100.919C311.883 100.811 311.612 100.657 311.348 100.456C311.084 100.256 310.863 99.9913 310.685 99.6633C310.513 99.3304 310.426 98.9119 310.426 98.4077C310.426 97.6978 310.612 97.1079 310.982 96.638C311.353 96.168 311.848 95.818 312.467 95.5879C313.086 95.3579 313.772 95.2453 314.523 95.2502C315.279 95.2599 315.954 95.3848 316.548 95.6246C317.142 95.8645 317.64 96.2145 318.041 96.6747C318.442 97.13 318.731 97.688 318.909 98.3489L316.67 98.7161C316.589 98.3734 316.439 98.0846 316.221 97.8496C316.003 97.6146 315.741 97.4359 315.437 97.3135C315.137 97.1912 314.822 97.1251 314.492 97.1153C314.168 97.1055 313.86 97.1495 313.571 97.2475C313.287 97.3405 313.053 97.4775 312.871 97.6587C312.693 97.8398 312.604 98.0552 312.604 98.3048C312.604 98.5349 312.678 98.7234 312.825 98.8703C312.972 99.0122 313.157 99.1273 313.381 99.2154C313.604 99.3035 313.832 99.3769 314.066 99.4357L315.97 99.935C316.254 100.008 316.569 100.106 316.914 100.229C317.259 100.346 317.589 100.513 317.904 100.728C318.223 100.939 318.485 101.218 318.688 101.565C318.896 101.913 319 102.353 319 102.887C319 103.455 318.876 103.952 318.627 104.378C318.383 104.799 318.053 105.149 317.637 105.428C317.221 105.702 316.749 105.907 316.221 106.044C315.698 106.181 315.157 106.25 314.599 106.25Z" fill="#233E50"/>
<path d="M297 106.25V95.25H304V97.1903H299.026V99.5431H303.106V101.483H299.026V104.31H304V106.25H297Z" fill="#233E50"/>
<path d="M286 106.25V95.25H290.886C290.998 95.25 291.148 95.2551 291.336 95.2653C291.529 95.2704 291.7 95.2856 291.85 95.3111C292.541 95.413 293.106 95.6294 293.546 95.9604C293.99 96.2914 294.317 96.709 294.526 97.2132C294.735 97.7123 294.839 98.2699 294.839 98.8861C294.839 99.8079 294.598 100.597 294.116 101.254C293.634 101.906 292.879 102.308 291.85 102.461L290.886 102.522H288.186V106.25H286ZM292.525 106.25L290.243 101.774L292.493 101.361L295 106.25H292.525ZM288.186 100.582H290.789C290.902 100.582 291.025 100.577 291.159 100.567C291.293 100.556 291.416 100.536 291.529 100.506C291.823 100.429 292.051 100.302 292.212 100.124C292.372 99.9403 292.482 99.7391 292.541 99.5201C292.605 99.2961 292.637 99.0847 292.637 98.8861C292.637 98.6875 292.605 98.4787 292.541 98.2597C292.482 98.0356 292.372 97.8345 292.212 97.6563C292.051 97.4729 291.823 97.3431 291.529 97.2667C291.416 97.2361 291.293 97.2157 291.159 97.2056C291.025 97.1954 290.902 97.1903 290.789 97.1903H288.186V100.582Z" fill="#233E50"/>
<path d="M274 106.25L277.421 95.25H280.579L284 106.25H281.823L278.774 96.5486H279.179L276.177 106.25H274ZM276.053 103.958V102.018H281.963V103.958H276.053Z" fill="#233E50"/>
<path d="M262.266 106.25L259 95.25H261.214L263.303 102.813L265.393 95.2653L267.607 95.25L269.697 102.813L271.786 95.25H274L270.734 106.25H268.659L266.5 98.825L264.341 106.25H262.266Z" fill="#233E50"/>
<path d="M252.463 106.25V97.1903H249V95.25H258V97.1903H254.537V106.25H252.463Z" fill="#233E50"/>
<path d="M241 106.25V95.25H248V97.3278H243.164V99.7111H247.045V101.789H243.164V106.25H241Z" fill="#233E50"/>
<path d="M234 106.25C232.968 106.25 232.078 106.02 231.328 105.561C230.583 105.101 230.008 104.458 229.602 103.632C229.201 102.806 229 101.845 229 100.75C229 99.6549 229.201 98.6942 229.602 97.868C230.008 97.0418 230.583 96.3989 231.328 95.9393C232.078 95.4798 232.968 95.25 234 95.25C235.032 95.25 235.92 95.4798 236.665 95.9393C237.415 96.3989 237.99 97.0418 238.391 97.868C238.797 98.6942 239 99.6549 239 100.75C239 101.845 238.797 102.806 238.391 103.632C237.99 104.458 237.415 105.101 236.665 105.561C235.92 106.02 235.032 106.25 234 106.25ZM234 104.373C234.654 104.382 235.199 104.238 235.633 103.94C236.068 103.642 236.393 103.219 236.607 102.671C236.827 102.124 236.937 101.483 236.937 100.75C236.937 100.017 236.827 99.3811 236.607 98.8433C236.393 98.3056 236.068 97.8876 235.633 97.5893C235.199 97.2911 234.654 97.1371 234 97.1273C233.346 97.1176 232.801 97.2618 232.367 97.56C231.932 97.8582 231.605 98.2811 231.385 98.8287C231.17 99.3762 231.063 100.017 231.063 100.75C231.063 101.483 231.17 102.119 231.385 102.657C231.605 103.194 231.932 103.612 232.367 103.911C232.801 104.209 233.346 104.363 234 104.373Z" fill="#233E50"/>
<path d="M222.599 106.25C221.787 106.25 221.053 106.113 220.398 105.839C219.749 105.56 219.213 105.163 218.792 104.649C218.376 104.13 218.112 103.514 218 102.799L220.162 102.49C220.315 103.097 220.629 103.565 221.107 103.893C221.584 104.221 222.127 104.385 222.736 104.385C223.076 104.385 223.406 104.333 223.726 104.231C224.046 104.128 224.307 103.976 224.51 103.775C224.718 103.575 224.822 103.327 224.822 103.034C224.822 102.926 224.805 102.823 224.769 102.725C224.739 102.623 224.685 102.527 224.609 102.439C224.533 102.351 224.424 102.268 224.282 102.189C224.145 102.111 223.97 102.04 223.756 101.976L220.909 101.169C220.695 101.11 220.447 101.027 220.162 100.919C219.883 100.811 219.612 100.657 219.348 100.456C219.084 100.256 218.863 99.9913 218.685 99.6633C218.513 99.3304 218.426 98.9119 218.426 98.4077C218.426 97.6978 218.612 97.1079 218.982 96.638C219.353 96.168 219.848 95.818 220.467 95.5879C221.086 95.3579 221.772 95.2453 222.523 95.2502C223.279 95.2599 223.954 95.3848 224.548 95.6246C225.142 95.8645 225.64 96.2145 226.041 96.6747C226.442 97.13 226.731 97.688 226.909 98.3489L224.67 98.7161C224.589 98.3734 224.439 98.0846 224.221 97.8496C224.003 97.6146 223.741 97.4359 223.437 97.3135C223.137 97.1912 222.822 97.1251 222.492 97.1153C222.168 97.1055 221.86 97.1495 221.571 97.2475C221.287 97.3405 221.053 97.4775 220.871 97.6587C220.693 97.8398 220.604 98.0552 220.604 98.3048C220.604 98.5349 220.678 98.7234 220.825 98.8703C220.972 99.0122 221.157 99.1273 221.381 99.2154C221.604 99.3035 221.832 99.3769 222.066 99.4357L223.97 99.935C224.254 100.008 224.569 100.106 224.914 100.229C225.259 100.346 225.589 100.513 225.904 100.728C226.223 100.939 226.485 101.218 226.688 101.565C226.896 101.913 227 102.353 227 102.887C227 103.455 226.876 103.952 226.627 104.378C226.383 104.799 226.053 105.149 225.637 105.428C225.221 105.702 224.749 105.907 224.221 106.044C223.698 106.181 223.157 106.25 222.599 106.25Z" fill="#233E50"/>
<path d="M203 106.25V95.25H206.554C206.641 95.25 206.819 95.2525 207.088 95.2576C207.358 95.2627 207.617 95.2806 207.866 95.3111C208.751 95.4181 209.501 95.7262 210.116 96.2354C210.731 96.7447 211.199 97.3914 211.519 98.1757C211.84 98.96 212 99.8181 212 100.75C212 101.682 211.84 102.54 211.519 103.324C211.199 104.109 210.731 104.755 210.116 105.265C209.501 105.774 208.751 106.082 207.866 106.189C207.617 106.219 207.358 106.237 207.088 106.242C206.819 106.247 206.641 106.25 206.554 106.25H203ZM205.105 104.294H206.554C206.692 104.294 206.877 104.292 207.111 104.287C207.345 104.277 207.556 104.254 207.744 104.218C208.222 104.121 208.611 103.897 208.911 103.546C209.216 103.194 209.44 102.772 209.582 102.278C209.73 101.784 209.803 101.275 209.803 100.75C209.803 100.2 209.727 99.678 209.575 99.184C209.427 98.69 209.201 98.2725 208.896 97.9312C208.591 97.59 208.207 97.3736 207.744 97.2819C207.556 97.2412 207.345 97.2183 207.111 97.2132C206.877 97.2081 206.692 97.2056 206.554 97.2056H205.105V104.294Z" fill="#233E50"/>
<path d="M193 106.25V95.25H200V97.1903H195.026V99.5431H199.106V101.483H195.026V104.31H200V106.25H193Z" fill="#233E50"/>
<path d="M185.463 106.25V97.1903H182V95.25H191V97.1903H187.537V106.25H185.463Z" fill="#233E50"/>
<path d="M172 106.25L175.421 95.25H178.579L182 106.25H179.823L176.774 96.5486H177.179L174.177 106.25H172ZM174.053 103.958V102.018H179.963V103.958H174.053Z" fill="#233E50"/>
<path d="M162 106.25V95.25H166.886C166.998 95.25 167.148 95.2551 167.336 95.2653C167.529 95.2704 167.7 95.2856 167.85 95.3111C168.541 95.413 169.106 95.6294 169.546 95.9604C169.99 96.2914 170.317 96.709 170.526 97.2132C170.735 97.7123 170.839 98.2699 170.839 98.8861C170.839 99.8079 170.598 100.597 170.116 101.254C169.634 101.906 168.879 102.308 167.85 102.461L166.886 102.522H164.186V106.25H162ZM168.525 106.25L166.243 101.774L168.493 101.361L171 106.25H168.525ZM164.186 100.582H166.789C166.902 100.582 167.025 100.577 167.159 100.567C167.293 100.556 167.416 100.536 167.529 100.506C167.823 100.429 168.051 100.302 168.212 100.124C168.372 99.9403 168.482 99.7391 168.541 99.5201C168.605 99.2961 168.637 99.0847 168.637 98.8861C168.637 98.6875 168.605 98.4787 168.541 98.2597C168.482 98.0356 168.372 97.8345 168.212 97.6563C168.051 97.4729 167.823 97.3431 167.529 97.2667C167.416 97.2361 167.293 97.2157 167.159 97.2056C167.025 97.1954 166.902 97.1903 166.789 97.1903H164.186V100.582Z" fill="#233E50"/>
<path d="M154.993 106.25C154.327 106.25 153.693 106.133 153.091 105.898C152.489 105.658 151.955 105.306 151.49 104.842C151.03 104.378 150.666 103.803 150.396 103.119C150.132 102.434 150 101.645 150 100.75C150 99.5816 150.223 98.5891 150.668 97.7727C151.118 96.9513 151.721 96.3256 152.474 95.8953C153.233 95.4651 154.072 95.25 154.993 95.25C156.353 95.25 157.423 95.5653 158.201 96.196C158.979 96.8267 159.501 97.7189 159.765 98.8727L157.724 99.166C157.533 98.55 157.22 98.0587 156.784 97.692C156.353 97.3204 155.8 97.1322 155.125 97.1273C154.454 97.1176 153.896 97.2618 153.451 97.56C153.005 97.8582 152.67 98.2811 152.445 98.8287C152.225 99.3762 152.115 100.017 152.115 100.75C152.115 101.483 152.225 102.119 152.445 102.657C152.67 103.194 153.005 103.612 153.451 103.911C153.896 104.209 154.454 104.363 155.125 104.373C155.58 104.382 155.991 104.304 156.358 104.138C156.73 103.972 157.044 103.71 157.298 103.353C157.553 102.996 157.734 102.539 157.841 101.982H156.167V100.442H159.971C159.98 100.506 159.988 100.618 159.993 100.779C159.998 100.941 160 101.034 160 101.058C160 102.07 159.794 102.967 159.383 103.749C158.972 104.532 158.392 105.145 157.643 105.59C156.894 106.03 156.011 106.25 154.993 106.25Z" fill="#233E50"/>
<path d="M141 106.25V95.25H148V97.1903H143.026V99.5431H147.106V101.483H143.026V104.31H148V106.25H141Z" fill="#233E50"/>
<path d="M133.463 106.25V97.1903H130V95.25H139V97.1903H135.537V106.25H133.463Z" fill="#233E50"/>
<path d="M119 106.25V95.25H121.109L125.891 102.583V95.25H128V106.25H125.891L121.109 98.9167V106.25H119Z" fill="#233E50"/>
<path d="M114 106.25V95.25H116V106.25H114Z" fill="#233E50"/>
</svg>
