<svg width="157" height="45" viewBox="0 0 157 45" fill="none" xmlns="http://www.w3.org/2000/svg">
<g clip-path="url(#clip0_48_85)">
<path d="M133.154 17.9553H133.949V15.8417H136.335V17.9553H137.277V19.564H136.335V22.9942C136.335 23.4054 136.522 23.5533 136.903 23.5533H137.274V25.1475C136.835 25.2016 136.371 25.2269 135.975 25.2269C134.517 25.2269 133.945 24.9888 133.945 23.3946V19.5676H133.15V17.9589L133.154 17.9553Z" fill="black"/>
<path d="M138.314 15.6577H140.699V18.7561H140.725C141.124 17.9986 141.801 17.7714 142.383 17.7714C143.366 17.7714 144.255 18.2222 144.255 19.7263V25.1511H141.869V20.4044C141.869 19.8057 141.711 19.5532 141.286 19.5532C140.861 19.5532 140.703 19.8057 140.703 20.4044V25.1511H138.317V15.6613L138.314 15.6577Z" fill="black"/>
<path d="M63.288 8.55563C62.6546 8.0759 61.881 7.81981 61.0858 7.82342C60.8555 7.82342 60.6252 7.84506 60.3985 7.88113C49.2903 8.65662 38.5852 6.00914 28.9524 0.447259C28.4091 0.151491 27.8009 0 27.1856 0C26.6531 0 26.1241 0.104601 25.6311 0.313802C25.1561 0.51579 24.7243 0.800737 24.3537 1.15422C24.199 1.30571 24.0586 1.46802 23.9327 1.64115C23.9255 1.64836 23.9183 1.65919 23.9147 1.67001C23.8176 1.79986 23.7312 1.93331 23.652 2.07037C21.7089 4.8946 18.8374 6.95415 15.5341 7.89917C15.3758 7.93163 15.2247 7.9713 15.0699 8.0218H15.0412C14.944 8.05426 14.8468 8.08673 14.7533 8.1264C14.2819 8.32839 13.8465 8.61334 13.4759 8.96682C13.1052 9.32751 12.8066 9.75313 12.5907 10.222C12.3676 10.7054 12.256 11.232 12.256 11.7658C12.2236 12.1878 12.2956 12.6098 12.4683 12.9958C12.6411 13.3817 12.9037 13.7207 13.2384 13.9768C13.8717 14.4566 14.6453 14.7126 15.4406 14.709C15.9731 14.709 16.5021 14.6044 16.9915 14.3952C17.4664 14.1932 17.8983 13.9083 18.2689 13.5548C18.4596 13.3673 18.6359 13.1653 18.787 12.9453C20.6618 9.91904 23.634 7.72603 27.0885 6.82069C37.9951 6.06324 48.6714 8.72876 58.1711 14.0886C58.3258 14.1933 58.4913 14.2834 58.6605 14.3664H58.6856C59.1642 14.5864 59.6896 14.7018 60.2186 14.6982C60.7511 14.6982 61.2801 14.5936 61.773 14.3844C62.248 14.1824 62.6798 13.8975 63.0505 13.544C63.4211 13.1869 63.7234 12.7613 63.9357 12.2924C64.1552 11.8055 64.2703 11.2789 64.2667 10.745C64.2955 10.3266 64.2235 9.90822 64.0508 9.5295C63.8817 9.14716 63.619 8.81172 63.288 8.55563Z" fill="#FFE607"/>
<path d="M4.12732 45C3.39325 45 2.66279 44.9279 1.94671 44.7836C1.28461 44.6538 0.63691 44.4806 0 44.257L1.50411 39.6509C1.85675 39.7772 2.21659 39.8818 2.58362 39.9648C2.97584 40.0477 3.37886 40.0838 3.78188 40.0802C4.1741 40.1054 4.56992 40.0441 4.93695 39.9034C5.30398 39.7628 5.63863 39.5427 5.9121 39.2578C6.47345 38.5725 6.84048 37.7501 6.97362 36.8736L11.7091 17.2195H17.5636L12.767 37.0287C12.1409 39.7411 11.1621 41.7466 9.83072 43.0523C8.49932 44.3544 6.59939 45.0036 4.12732 44.9964V45Z" fill="black"/>
<path d="M23.4937 37.7754H17.6787L22.5869 17.2123H28.4414L23.4937 37.7754Z" fill="black"/>
<path d="M33.5511 18.1536C33.9937 18.0237 34.4831 17.8759 35.0192 17.7027C35.5554 17.5296 36.1563 17.3781 36.8256 17.2338C37.5669 17.0751 38.3117 16.9525 39.0638 16.8695C39.9958 16.7758 40.9349 16.7289 41.8741 16.7361C44.9651 16.7361 47.0845 17.6234 48.236 19.3944C49.3875 21.1654 49.5854 23.5892 48.8225 26.6659L46.1525 37.7717H40.3016L42.8924 26.9004C43.0508 26.2259 43.1731 25.5658 43.2595 24.9274C43.353 24.3719 43.3458 23.802 43.2415 23.2466C43.1443 22.7813 42.8852 22.3665 42.5074 22.0743C41.9892 21.7353 41.3775 21.5766 40.7586 21.6235C39.9814 21.6235 39.2041 21.7064 38.4413 21.8579L34.6306 37.7717H28.7869L33.5439 18.1536H33.5511Z" fill="black"/>
<path d="M48.9089 45C48.1784 45 47.4479 44.9279 46.7319 44.7836C46.0698 44.6538 45.4221 44.4806 44.7852 44.257L46.2785 39.6401C46.6311 39.7664 46.991 39.871 47.358 39.9539C47.7502 40.0369 48.1532 40.073 48.5562 40.0694C48.9485 40.0946 49.3407 40.0333 49.7077 39.889C50.0747 39.7483 50.4058 39.5283 50.6793 39.247C51.2406 38.5617 51.6076 37.7393 51.7408 36.8628L56.4942 17.2195H62.3487L57.5557 37.0287C56.9296 39.7411 55.9509 41.7466 54.6195 43.0523C53.2881 44.358 51.3845 45.0036 48.9125 44.9964L48.9089 45Z" fill="black"/>
<path d="M76.9185 24.253C76.6595 24.6894 76.2744 25.0429 75.8174 25.2702C75.087 25.6489 74.3061 25.9194 73.4965 26.0745C72.2047 26.327 70.8877 26.4641 69.5707 26.4821C69.8154 25.0465 70.5099 23.7264 71.5534 22.7056C72.0176 22.2512 72.5645 21.8905 73.1691 21.6452C73.7736 21.3999 74.4177 21.2773 75.069 21.2809C76.4867 21.2809 77.192 21.9049 77.192 23.1565C77.192 23.5388 77.0949 23.914 76.9185 24.253ZM82.0066 20.0077C81.6936 19.3043 81.2222 18.6767 80.6285 18.1789C80.0203 17.6704 79.3223 17.288 78.5702 17.0464C77.739 16.7758 76.8718 16.646 76.001 16.6568C74.245 16.628 72.5034 17.0031 70.9165 17.7533C69.4304 18.4603 68.1026 19.4558 67.0051 20.6785C65.9256 21.9013 65.0799 23.3116 64.5114 24.8409C63.9249 26.3919 63.6262 28.0331 63.6262 29.6922C63.619 30.8176 63.7773 31.9358 64.1012 33.0142C64.3927 34.0638 64.9288 35.0269 65.6665 35.8312C66.4041 36.6356 67.3181 37.256 68.3401 37.6455C69.6499 38.1361 71.046 38.3669 72.4458 38.3272C73.6908 38.3272 74.9358 38.2082 76.1593 37.9629C77.1165 37.7826 78.0556 37.5193 78.9696 37.1802L78.5378 32.603C77.7498 32.8988 76.9329 33.1152 76.1017 33.2487C75.2525 33.3893 74.3925 33.4615 73.5325 33.4651C72.1975 33.4651 71.2223 33.2342 70.5962 32.7834C69.9701 32.3325 69.5815 31.5534 69.398 30.4569C71.1504 30.4677 72.8992 30.3235 74.6228 30.0241C76.0693 29.7896 77.4691 29.3207 78.7645 28.639C79.8728 28.0547 80.812 27.1999 81.4957 26.1539C82.1757 25.0357 82.5176 23.748 82.4744 22.4423C82.496 21.6091 82.3377 20.7795 82.0102 20.0113L82.0066 20.0077Z" fill="black"/>
<path d="M99.0772 22.2187C98.5518 22.0888 98.0337 21.9662 97.5227 21.8544C96.7778 21.7173 96.0222 21.6596 95.2629 21.6776C94.8563 21.6776 94.4497 21.7137 94.0467 21.775C93.676 21.8255 93.309 21.8977 92.9456 21.9914L89.1349 37.7862H83.2804L87.9942 18.3232C89.1205 17.9589 90.3836 17.6126 91.7833 17.2844C93.3378 16.9454 94.9283 16.7794 96.5188 16.7975C97.2492 16.8047 97.9761 16.8624 98.6958 16.9742C99.419 17.0716 100.128 17.2628 100.801 17.5405L99.07 22.2187H99.0772Z" fill="black"/>
<path d="M138.929 8.89108C145.158 8.89108 150.224 13.9696 150.224 20.2132C150.224 26.4568 145.158 31.5354 138.929 31.5354C132.7 31.5354 127.634 26.4568 127.634 20.2132C127.634 13.9696 132.7 8.89108 138.929 8.89108ZM138.929 2.09924C128.947 2.09924 120.858 10.2112 120.858 20.2132C120.858 30.2152 128.951 38.3272 138.929 38.3272C148.907 38.3272 157 30.2152 157 20.2132C157 10.2112 148.907 2.09924 138.929 2.09924Z" fill="#FFE607"/>
<path d="M119.815 20.2132C119.815 14.3772 122.434 9.14717 126.554 5.63042L127.299 2.09924H121.275C120.408 4.40046 118.163 7.78015 111.679 7.78015H110.606L109.433 13.205H116.375L111.067 38.3308H119.642L121.711 28.5344C120.495 26.0168 119.815 23.1961 119.815 20.2168V20.2132Z" fill="black"/>
</g>
<defs>
<clipPath id="clip0_48_85">
<rect width="157" height="45" fill="white"/>
</clipPath>
</defs>
</svg>
